<?xml version="1.0" encoding="UTF-8" standalone="no"?>
<!DOCTYPE svg PUBLIC "-//W3C//DTD SVG 1.1//EN" "http://www.w3.org/Graphics/SVG/1.1/DTD/svg11.dtd">
<!-- Generated by Microsoft Visio, SVG Export eclipse-icon.svg Layer_1 -->
<svg xmlns="http://www.w3.org/2000/svg" xmlns:xlink="http://www.w3.org/1999/xlink" xmlns:ev="http://www.w3.org/2001/xml-events"
		xmlns:v="http://schemas.microsoft.com/visio/2003/SVGExtensions/" width="6.375in" height="8.25in" viewBox="0 0 459 594"
		xml:space="preserve" color-interpolation-filters="sRGB" class="st9">
	<v:documentProperties v:langID="1033" v:viewMarkup="false"/>

	<style type="text/css">
	<![CDATA[
		.st1 {fill:#2c2255;stroke:none;stroke-linecap:butt;stroke-width:0.75}
		.st2 {fill:#2c2255}
		.st3 {stroke:none;stroke-linecap:butt;stroke-width:0.75}
		.st4 {fill:#f7941e;stroke:none;stroke-linecap:butt;stroke-width:0.75}
		.st5 {fill:url(#grad0-19);stroke:none;stroke-linecap:butt;stroke-width:0.75}
		.st6 {fill:url(#grad0-26);stroke:none;stroke-linecap:butt;stroke-width:0.75}
		.st7 {fill:#ffffff;stroke:none;stroke-linecap:butt;stroke-width:0.75}
		.st8 {fill:#ffffff}
		.st9 {fill:none;fill-rule:evenodd;font-size:12px;overflow:visible;stroke-linecap:square;stroke-miterlimit:3}
	]]>
	</style>

	<defs id="Patterns_And_Gradients">
		<linearGradient id="grad0-19" x1="0" y1="0" x2="1" y2="0" gradientTransform="rotate(-90 0.5 0.5)">
			<stop offset="0.305" stop-color="#473788" stop-opacity="1"/>
			<stop offset="0.87" stop-color="#2c2255" stop-opacity="1"/>
		</linearGradient>
		<linearGradient id="grad0-26" x1="0" y1="0" x2="1" y2="0" gradientTransform="rotate(-90 0.5 0.5)">
			<stop offset="0.305" stop-color="#473788" stop-opacity="1"/>
			<stop offset="0.865" stop-color="#2c2255" stop-opacity="1"/>
		</linearGradient>
	</defs>
	<g v:mID="0" v:index="1" v:groupContext="foregroundPage">
		<title>Layer_1</title>
		<v:pageProperties v:drawingScale="1" v:pageScale="1" v:drawingUnits="19" v:shadowOffsetX="9" v:shadowOffsetY="-9"/>
		<g id="shape1-1" v:mID="1" v:groupContext="shape" transform="translate(63.285,-273.166)">
			<title>Sheet.1</title>
			<path d="M12.56 567.87 L0 567.87 C1.66 573.57 4.75 578.68 9.27 583.2 C16.47 590.4 25.13 594 35.25 594 C37.28 594 39.24
						 593.85 41.14 593.56 C48.77 592.41 55.45 588.96 61.17 583.2 C65.72 578.69 68.82 573.57 70.5 567.87 L65.4
						 567.87 L57.95 567.87 L12.56 567.87 Z" class="st1"/>
		</g>
		<g id="group2-3" transform="translate(61.8802,-303.404)" v:mID="2" v:groupContext="group">
			<title>Sheet.2</title>
			<g id="shape3-4" v:mID="3" v:groupContext="shape" transform="translate(2.8777E-13,-8.52825)">
				<title>Sheet.3</title>
				<path d="M7.04 589.58 L0.48 589.58 C0.24 591.02 0.07 592.49 0 594 L7.8 594 L11.71 594 L68.16 594 L73.32 594 C73.24
							 592.49 73.08 591.02 72.84 589.58 L7.04 589.58 Z" class="st2"/>
				<path d="M7.04 589.58 L0.48 589.58 C0.24 591.02 0.07 592.49 0 594 L7.8 594 L11.71 594 L68.16 594 L73.32 594 C73.24
							 592.49 73.08 591.02 72.84 589.58" class="st3"/>
			</g>
			<g id="shape4-7" v:mID="4" v:groupContext="shape">
				<title>Sheet.4</title>
				<path d="M0 589.58 C0.07 591.09 0.24 592.56 0.48 594 L7.3 594 L12.47 594 L67.7 594 L72.84 594 C73.08 592.56 73.24
							 591.09 73.32 589.58 L0 589.58 Z" class="st2"/>
				<path d="M0 589.58 C0.07 591.09 0.24 592.56 0.48 594 L7.3 594 L12.47 594 L67.7 594 L72.84 594 C73.08 592.56 73.24
							 591.09 73.32 589.58" class="st3"/>
			</g>
		</g>
		<g id="shape5-10" v:mID="5" v:groupContext="shape" transform="translate(63.2827,-320.461)">
			<title>Sheet.5</title>
			<path d="M70.5 594 C68.83 588.28 65.72 583.14 61.17 578.59 C55.47 572.89 48.81 569.46 41.2 568.31 C39.28 568.02 37.3
						 567.87 35.26 567.87 C25.13 567.87 16.47 571.44 9.27 578.59 C4.75 583.14 1.66 588.28 0 594 L70.5 594 Z"
					class="st2"/>
			<path d="M70.5 594 C68.83 588.28 65.72 583.14 61.17 578.59 C55.47 572.89 48.81 569.46 41.2 568.31 C39.28 568.02 37.3
						 567.87 35.26 567.87 C25.13 567.87 16.47 571.44 9.27 578.59 C4.75 583.14 1.66 588.28 0 594" class="st3"/>
		</g>
		<g id="shape6-13" v:mID="6" v:groupContext="shape" transform="translate(53.3025,-271.551)">
			<title>Sheet.6</title>
			<path d="M6.4 555.67 C6.4 536.3 20.94 520.21 39.87 517.38 C39.4 517.36 38.93 517.35 38.45 517.35 C17.22 517.35 0 534.51
						 0 555.67 C0 576.84 17.22 594 38.45 594 C38.93 594 39.4 593.98 39.87 593.96 C20.94 591.13 6.4 575.04 6.4
						 555.67 Z" class="st4"/>
		</g>
		<g id="group15-15" transform="translate(73.5885,-284.837)" v:mID="15" v:groupContext="group">
			<title>Sheet.15</title>
			<g id="shape16-16" v:mID="16" v:groupContext="shape" transform="translate(7.99361E-15,-27.096)">
				<title>Sheet.16</title>
				<path d="M49.9 594 C49.78 592.48 49.52 591.01 49.14 589.58 L0.76 589.58 C0.38 591.01 0.12 592.48 0 594 L49.9 594 Z"
						class="st5"/>
			</g>
			<g id="shape17-20" v:mID="17" v:groupContext="shape" transform="translate(0.00075,-18.567)">
				<title>Sheet.17</title>
				<path d="M49.9 589.58 L0 589.58 C0.12 591.09 0.38 592.57 0.76 594 L49.14 594 C49.52 592.57 49.78 591.09 49.9 589.58
							 Z" class="st5"/>
			</g>
			<g id="shape18-23" v:mID="18" v:groupContext="shape" transform="translate(2.25375,0)">
				<title>Sheet.18</title>
				<path d="M22.7 594 C32.75 594 41.41 588.08 45.39 579.54 L0 579.54 C3.99 588.08 12.65 594 22.7 594 Z" class="st6"/>
			</g>
		</g>
		<g id="group19-27" transform="translate(61.8135,-299.298)" v:mID="19" v:groupContext="group">
			<title>Sheet.19</title>
			<g id="shape20-28" v:mID="20" v:groupContext="shape" transform="translate(0,-8.52825)">
				<title>Sheet.20</title>
				<path d="M8.08 594 L11.74 594 L61.77 594 L68.34 594 L73.34 594 C73.37 593.35 73.39 592.69 73.39 592.03 C73.39 591.31
							 73.36 590.6 73.32 589.89 L68.34 589.89 L61.77 589.89 L11.74 589.89 L7.82 589.89 L0.07 589.89 C0.03 590.6
							 0 591.31 0 592.03 C0 592.69 0.02 593.35 0.05 594 L8.08 594 Z" class="st7"/>
			</g>
			<g id="shape21-30" v:mID="21" v:groupContext="shape" transform="translate(0.5445,-17.0565)">
				<title>Sheet.21</title>
				<path d="M13.34 589.89 L0.92 589.89 C0.52 591.23 0.25 592.6 0 594 L6.39 594 L11.84 594 L60.35 594 L67.22 594 L72.13
							 594 C71.87 592.6 71.55 591.23 71.14 589.89 L13.34 589.89 Z" class="st8"/>
				<path d="M13.34 589.89 L0.92 589.89 C0.52 591.23 0.25 592.6 0 594 L6.39 594 L11.84 594 L60.35 594 L67.22 594 L72.13
							 594 C71.87 592.6 71.55 591.23 71.14 589.89" class="st3"/>
			</g>
			<g id="shape22-33" v:mID="22" v:groupContext="shape" transform="translate(0.54375,0)">
				<title>Sheet.22</title>
				<path d="M67.41 589.89 L60.54 589.89 L12.03 589.89 L6.85 589.89 L0 589.89 C0.25 591.29 0.53 592.66 0.93 594 L13.53
							 594 L59.04 594 L66.52 594 L71.38 594 C71.78 592.66 72.11 591.29 72.35 589.89 L67.41 589.89 Z"
						class="st7"/>
			</g>
		</g>
	</g>
</svg>
